<svg width="558" height="437" viewBox="0 0 558 437" fill="none" xmlns="http://www.w3.org/2000/svg">
<g clip-path="url(#clip0)">
<path d="M402.253 411.972H62.3464V413.489H402.253V411.972Z" fill="#3F3D56"/>
<path d="M242.606 203.25C242.606 203.25 235.392 237.368 249.819 231.303C264.247 225.237 255.59 201.733 255.59 201.733L242.606 203.25Z" fill="#FFB9B9"/>
<path d="M377.502 214.623C377.502 214.623 394.814 236.61 383.994 241.159C373.173 245.709 367.402 220.688 368.845 218.414C370.288 216.139 377.502 214.623 377.502 214.623Z" fill="#FFB9B9"/>
<path d="M336.384 59.1918C348.336 59.1918 358.025 49.0081 358.025 36.4459C358.025 23.8837 348.336 13.7 336.384 13.7C324.431 13.7 314.742 23.8837 314.742 36.4459C314.742 49.0081 324.431 59.1918 336.384 59.1918Z" fill="#FFB9B9"/>
<path d="M320.153 45.1655L317.267 68.6695L341.072 77.7676L346.122 51.2307L320.153 45.1655Z" fill="#FFB9B9"/>
<path d="M333.498 68.2902C333.498 68.2902 321.269 61.9448 318.727 56.7773L313.3 62.2246C313.3 62.2246 274.346 58.4336 268.575 78.905C262.804 99.3763 267.853 173.68 267.853 173.68C267.853 173.68 259.918 207.04 262.082 207.799C264.247 208.557 290.937 222.204 328.448 214.622C328.448 214.622 345.04 211.59 347.925 213.864C350.811 216.139 346.482 177.471 346.482 177.471C346.482 177.471 375.337 109.233 370.288 100.893C365.238 92.5525 342.876 75.114 342.876 75.114L344.318 66.7738C344.318 66.7738 334.219 71.323 333.498 68.2902Z" fill="#11544B"/>
<path d="M274.346 73.5977C274.346 73.5977 261.361 80.4214 259.197 91.0362C257.033 101.651 236.835 189.602 238.999 194.909C241.163 200.217 240.441 207.041 240.441 207.041L259.197 204.766C259.197 204.766 255.59 199.459 257.754 197.184C259.918 194.909 262.082 187.327 260.64 184.295C259.197 181.262 257.754 186.569 265.689 176.713C273.624 166.856 291.658 76.6305 274.346 73.5977Z" fill="#11544B"/>
<path d="M365.96 99.3765C365.96 99.3765 372.091 99.7556 373.534 110.37C374.977 120.985 377.501 186.569 377.501 186.569C377.501 186.569 386.879 207.799 383.272 210.832C379.666 213.864 381.83 218.414 381.83 218.414L368.845 222.205L340.712 175.954L365.96 99.3765Z" fill="#11544B"/>
<path d="M264.247 204.766C264.247 204.766 259.918 205.524 259.918 222.204C259.918 238.885 251.983 290.442 257.033 298.782C262.083 307.123 262.804 382.184 262.804 382.184C262.804 382.184 276.51 388.25 288.052 368.537L289.495 357.922L292.38 306.364L303.922 241.918L319.792 313.188C319.792 313.188 317.628 398.865 325.563 398.865C333.498 398.865 348.647 392.041 348.647 392.041C348.647 392.041 352.254 384.459 350.811 380.668C349.368 376.877 347.925 377.635 349.368 374.602C350.811 371.569 352.975 292.717 352.975 292.717C352.975 292.717 350.089 211.59 346.483 209.315C342.876 207.04 264.247 204.766 264.247 204.766Z" fill="#2F2E41"/>
<path d="M264.247 379.151L252.705 392.041C252.705 392.041 231.785 412.512 249.819 413.27C267.853 414.029 277.953 401.139 277.953 399.623C277.953 398.106 278.674 392.799 283.723 392.799C288.773 392.799 301.036 379.91 298.151 374.602C295.265 369.295 286.609 367.02 286.609 367.02L264.247 379.151Z" fill="#2F2E41"/>
<path d="M326.284 395.832C326.284 395.832 317.628 414.029 322.678 417.82C327.727 421.611 329.17 423.127 329.17 423.127C329.17 423.127 333.498 422.369 332.777 429.193C332.055 436.016 358.746 439.807 360.189 434.5C361.631 429.193 360.91 418.578 358.025 415.545C355.139 412.512 346.483 391.283 346.483 391.283C346.483 391.283 337.105 379.91 326.284 395.832Z" fill="#2F2E41"/>
<path d="M358.224 18.1816L362.301 17.573C362.301 17.573 356.626 6.59394 345.641 4.60036L349.497 1.86507C349.497 1.86507 342.797 -3.16768 334.138 3.3013C329.586 6.70188 324.301 10.7159 320.413 15.7683L316.436 14.7468L317.203 19.0144L310.501 21.3634L316.624 22.205C315.779 24.2173 315.225 26.3507 314.98 28.5348C314.743 30.7216 315.323 32.9198 316.599 34.6654C316.599 34.6654 323.534 25.8292 323.897 24.2667L322.989 28.173C322.989 28.173 327.519 25.6112 328.064 23.2674L329.454 26.5221L331.466 22.4853L342.957 29.9907L341.749 25.9547L349.241 29.121L347.202 24.0436C347.202 24.0436 354.798 31.3764 354.137 35.7601C353.475 40.1437 355.098 44.8753 355.098 44.8753C355.098 44.8753 366.652 26.5558 358.224 18.1816Z" fill="#2F2E41"/>
<path d="M558 275.893H442.479V277.345H558V275.893Z" fill="#3F3D56"/>
<path d="M126.19 387.841H98.344V417.109H126.19V387.841Z" fill="#916E5C"/>
<path d="M122.526 413.258H93.2144V382.45H122.526V413.258ZM94.68 411.718H121.061V383.99H94.6799L94.68 411.718Z" fill="#916E5C"/>
<path d="M156.656 132.106L139.033 139.27L145.613 157.151L163.236 149.987L156.656 132.106Z" fill="#F2F2F2"/>
<path d="M160.051 148.577L141.501 156.118L134.575 137.296L153.125 129.755L160.051 148.577ZM142.082 154.8L158.777 148.013L152.544 131.073L135.849 137.86L142.082 154.8Z" fill="#3F3D56"/>
<path d="M480.472 350.088L474.329 331.308L457.079 337.541L463.222 356.321L480.472 350.088Z" fill="#F2F2F2"/>
<path d="M464.684 353.03L458.217 333.261L476.375 326.7L482.841 346.469L464.684 353.03ZM459.449 333.921L465.268 351.713L481.61 345.808L475.79 328.016L459.449 333.921Z" fill="#3F3D56"/>
<path d="M87.6134 256.73C97.9453 256.963 106.164 264.832 106.164 264.832C106.164 264.832 97.6318 272.324 87.2999 272.091C76.968 271.858 68.749 263.989 68.749 263.989C68.749 263.989 77.2815 256.497 87.6134 256.73Z" fill="#00BFA6"/>
<path d="M35.6697 219.661C45.0042 224.322 55.7078 221.161 55.7078 221.161C55.7078 221.161 51.2773 210.443 41.9428 205.782C32.6084 201.121 21.9048 204.282 21.9048 204.282C21.9048 204.282 26.3353 215 35.6697 219.661Z" fill="#00BFA6"/>
<path d="M36.6187 215.029C46.9101 214.04 55.9181 220.89 55.9181 220.89C55.9181 220.89 48.2405 229.342 37.9491 230.33C27.6577 231.319 18.6497 224.469 18.6497 224.469C18.6497 224.469 26.3273 216.018 36.6187 215.029Z" fill="#3F3D56"/>
<path d="M74.3437 216.902C73.3573 227.714 79.8336 237.212 79.8336 237.212C79.8336 237.212 87.9092 229.181 88.8956 218.368C89.882 207.556 83.4057 198.058 83.4057 198.058C83.4057 198.058 75.3301 206.089 74.3437 216.902Z" fill="#3F3D56"/>
<path d="M122.811 283.213C117.413 292.476 119.27 303.997 119.27 303.997C119.27 303.997 129.879 300.501 135.277 291.239C140.675 281.977 138.818 270.455 138.818 270.455C138.818 270.455 128.209 273.951 122.811 283.213Z" fill="#3F3D56"/>
<path d="M107.151 383.92L107.938 383.361C105.165 379.132 103.651 374.132 103.588 368.996C103.61 361.483 107.121 354.535 110.516 347.815C111.147 346.568 111.775 345.324 112.379 344.082C114.915 339.015 116.937 333.682 118.409 328.17C123.676 307.599 118.491 283.33 104.539 263.249C93.472 247.319 76.9737 233.389 54.1023 220.664L53.6582 221.545C76.3993 234.199 92.7919 248.033 103.773 263.838C117.556 283.677 122.685 307.629 117.493 327.911C116.037 333.355 114.04 338.623 111.534 343.628C110.932 344.865 110.306 346.104 109.678 347.347C106.228 354.174 102.662 361.233 102.639 368.993C102.702 374.329 104.272 379.525 107.151 383.92Z" fill="#3F3D56"/>
<path d="M9.01927 221.975C14.0003 221.975 18.0383 217.731 18.0383 212.495C18.0383 207.26 14.0003 203.016 9.01927 203.016C4.0382 203.016 0.000244141 207.26 0.000244141 212.495C0.000244141 217.731 4.0382 221.975 9.01927 221.975Z" fill="#3F3D56"/>
<path d="M500.009 268.489L383.916 224.664L404.642 164.01L476.927 145.378L520.736 207.836L500.009 268.489Z" fill="#2F2E41"/>
<path d="M485.945 256.461L399.188 221.702C421.711 189.994 431.782 167.627 431.79 132.43L518.546 167.19C498.391 197.282 489.962 219.904 485.945 256.461Z" fill="#F2F2F2"/>
<path d="M492.774 171.946L447.827 153.938L447.03 156.136L491.977 174.144L492.774 171.946Z" fill="#3F3D56"/>
<path d="M489.586 180.735L444.64 162.727L443.843 164.925L488.789 182.933L489.586 180.735Z" fill="#3F3D56"/>
<path d="M486.399 189.525L441.452 171.517L440.655 173.714L485.602 191.722L486.399 189.525Z" fill="#3F3D56"/>
<path d="M483.211 198.313L438.265 180.305L437.468 182.503L482.414 200.511L483.211 198.313Z" fill="#3F3D56"/>
<path d="M480.023 207.102L435.077 189.094L434.28 191.292L479.226 209.3L480.023 207.102Z" fill="#3F3D56"/>
<path d="M476.836 215.892L431.89 197.884L431.093 200.081L476.039 218.089L476.836 215.892Z" fill="#3F3D56"/>
<path d="M473.648 224.681L428.702 206.673L427.905 208.87L472.851 226.878L473.648 224.681Z" fill="#3F3D56"/>
<path d="M470.461 233.47L425.514 215.462L424.718 217.659L469.664 235.667L470.461 233.47Z" fill="#3F3D56"/>
<path d="M497.327 276.338L381.234 232.513L404.642 164.01L453.667 212.325L520.736 207.836L497.327 276.338Z" fill="#3F3D56"/>
<path d="M438.339 254.753L380.452 232.901L394.557 191.623L395.708 192.057L382.016 232.125L438.752 253.543L438.339 254.753Z" fill="#6C63FF"/>
<path d="M417.762 210.855L400.79 204.448L398.351 211.583L415.324 217.99L417.762 210.855Z" fill="#00BFA6"/>
<path d="M225.861 412.512L134.998 412.462L135.712 358.847L180.868 380.179L226.574 360.183L225.861 412.512Z" fill="#3F3D56"/>
<path d="M155.517 388.185L142.233 387.99L142.158 393.575L155.442 393.77L155.517 388.185Z" fill="#00BFA6"/>
<path d="M226.877 360.109L180.95 384.719L135.472 360.109V358.689H226.877V360.109Z" fill="#00BFA6"/>
<path d="M490.904 157.18C491.99 154.186 486.477 149.198 478.592 146.038C470.706 142.879 463.433 142.745 462.347 145.738C461.262 148.732 466.774 153.72 474.66 156.879C482.545 160.039 489.818 160.173 490.904 157.18Z" fill="#00BFA6"/>
<path d="M503.383 65.8832C500.471 64.9313 497.408 64.5917 494.371 64.8838C491.334 65.1758 488.381 66.0939 485.681 67.5854C482.981 69.077 480.587 71.1129 478.635 73.5769C476.684 76.0409 475.214 78.8848 474.308 81.9461C470.499 94.8206 480.879 141.952 480.879 141.952C480.879 141.952 514.857 109.318 518.666 96.4432C520.495 90.2606 519.913 83.5676 517.047 77.8365C514.181 72.1053 509.266 67.8056 503.383 65.8832ZM493.22 100.237C491.142 99.5578 489.303 98.2464 487.934 96.4684C486.565 94.6904 485.729 92.5257 485.531 90.2482C485.332 87.9706 485.781 85.6823 486.82 83.6728C487.859 81.6633 489.442 80.0228 491.368 78.9587C493.294 77.8946 495.477 77.4547 497.641 77.6947C499.805 77.9347 501.853 78.8437 503.526 80.3069C505.198 81.77 506.42 83.7216 507.037 85.9148C507.654 88.1079 507.639 90.4442 506.993 92.6282C506.564 94.0782 505.867 95.4253 504.943 96.5925C504.019 97.7596 502.885 98.724 501.606 99.4306C500.327 100.137 498.928 100.572 497.489 100.71C496.051 100.849 494.6 100.688 493.22 100.237Z" fill="#00BFA6"/>
</g>
<defs>
<clipPath id="clip0">
<rect width="558" height="437" fill="white"/>
</clipPath>
</defs>
</svg>
