<svg xmlns="http://www.w3.org/2000/svg" width="50" height="50" fill="none" viewBox="0 0 50 50"><path fill="#C8CDCF" d="M44.1406 0H5.85938C2.62852 0 0 2.62852 0 5.85938V44.1406C0 47.3715 2.62852 50 5.85938 50H44.1406C47.3715 50 50 47.3715 50 44.1406V5.85938C50 2.62852 47.3715 0 44.1406 0ZM46.0938 44.1406C46.0938 45.2176 45.2176 46.0938 44.1406 46.0938H33.0078V30.1758H39.042L40.0391 24.1211H33.0078V19.9219C33.0078 18.2642 34.2798 16.9922 35.9375 16.9922H39.9414V10.9375H35.9375C30.9646 10.9375 26.9553 14.9658 26.9553 19.9389V24.1211H21.0938V30.1758H26.9553V46.0938H5.85938C4.78242 46.0938 3.90625 45.2176 3.90625 44.1406V5.85938C3.90625 4.78242 4.78242 3.90625 5.85938 3.90625H44.1406C45.2176 3.90625 46.0938 4.78242 46.0938 5.85938V44.1406Z"/></svg>