<svg width="90" height="60" viewBox="0 0 90 60" fill="none" xmlns="http://www.w3.org/2000/svg">
<g clip-path="url(#clip0)">
<path d="M69.9849 30.5723C64.2892 26.5242 55.3683 22.6958 45.5097 20.0688C36.5335 17.6769 27.7783 16.5221 20.8551 16.817L20.8191 16.0516C27.8247 15.7533 36.6707 16.9178 45.7273 19.3311C55.6778 21.9826 64.6953 25.8562 70.4675 29.9587L69.9849 30.5723Z" fill="#CCCCCC"/>
<path d="M69.3938 33.6904C69.3989 37.277 68.608 40.8242 67.0728 44.1004C66.9446 44.3746 66.8111 44.6464 66.6722 44.9156C64.0021 50.1149 59.5577 54.3007 54.0639 56.7902C48.5701 59.2797 42.3511 59.926 36.4213 58.6238C30.4915 57.3215 25.2008 54.1474 21.4121 49.6194C17.6235 45.0913 15.5605 39.4763 15.5596 33.6904C15.5596 33.0982 15.5808 32.5105 15.6232 31.9275C15.6434 31.631 15.6695 31.3362 15.7014 31.0433C16.4152 24.5209 19.7354 18.5079 24.9769 14.2452C30.2183 9.98238 36.981 7.7951 43.8694 8.13471C50.7578 8.47432 57.2462 11.3149 61.9957 16.0702C66.7453 20.8256 69.3934 27.1328 69.3938 33.6904V33.6904Z" fill="#00BFA6"/>
<path opacity="0.1" d="M67.0728 44.1003C66.9447 44.3746 66.8112 44.6463 66.6723 44.9155C65.8857 44.9967 65.0578 45.0557 64.1885 45.0925C63.4688 45.1232 62.7282 45.1385 61.9715 45.1385C55.3615 45.1385 47.4064 43.9785 39.2797 41.8133C30.223 39.3999 22.0294 36.0241 16.2076 32.3074C16.0093 32.181 15.8146 32.0544 15.6233 31.9274C15.6434 31.6309 15.6695 31.3362 15.7015 31.0433C16.0101 31.2524 16.3285 31.4619 16.6565 31.6715C22.4098 35.3438 30.5212 38.6835 39.4973 41.0755C47.5531 43.2223 55.4332 44.3723 61.9674 44.3723C62.7145 44.3723 63.4428 44.3572 64.1522 44.3271C65.1854 44.2827 66.159 44.2071 67.0728 44.1003Z" fill="black"/>
<path d="M61.9716 44.5257C55.3618 44.5258 47.4063 43.3657 39.2799 41.2003C30.2233 38.787 22.0294 35.4112 16.2075 31.6946C10.2641 27.9004 7.47709 24.1619 8.35988 21.1675C9.24264 18.1732 13.6675 16.3563 20.8193 16.0516L20.8554 16.817C17.5155 16.9593 14.7937 17.4312 12.7656 18.2197C10.7423 19.0062 9.52111 20.0676 9.13587 21.3743C8.75063 22.681 9.21371 24.1912 10.5122 25.8629C11.8139 27.5386 13.8812 29.2867 16.6567 31.0585C22.4094 34.7309 30.5211 38.0707 39.4975 40.4626C47.5535 42.6092 55.4329 43.7595 61.9677 43.7597C62.7143 43.7597 63.4425 43.7446 64.1521 43.7144C67.4919 43.5721 70.2137 43.1002 72.2419 42.3117C74.2652 41.5252 75.4864 40.4639 75.8716 39.1571C76.5633 36.8107 74.4729 33.7619 69.9852 30.5723L70.4678 29.9587C72.7771 31.6001 74.4866 33.218 75.5487 34.7674C76.6874 36.4285 77.0571 37.975 76.6476 39.3639C75.7648 42.3583 71.3399 44.1751 64.1882 44.4798C63.4685 44.5105 62.7283 44.5257 61.9716 44.5257Z" fill="#CCCCCC"/>
<path d="M43.1888 3.48516C43.3592 3.48516 43.4972 3.35387 43.4972 3.19192C43.4972 3.02997 43.3592 2.89868 43.1888 2.89868C43.0185 2.89868 42.8804 3.02997 42.8804 3.19192C42.8804 3.35387 43.0185 3.48516 43.1888 3.48516Z" fill="#F2F2F2"/>
<path d="M2.26842 16.2096C2.56148 16.2096 2.79906 15.9838 2.79906 15.7052C2.79906 15.4265 2.56148 15.2007 2.26842 15.2007C1.97537 15.2007 1.73779 15.4265 1.73779 15.7052C1.73779 15.9838 1.97537 16.2096 2.26842 16.2096Z" fill="#CCCCCC"/>
<path d="M1.13833 36.4464C1.71726 36.4464 2.18658 36.0002 2.18658 35.4498C2.18658 34.8994 1.71726 34.4532 1.13833 34.4532C0.559404 34.4532 0.0900879 34.8994 0.0900879 35.4498C0.0900879 36.0002 0.559404 36.4464 1.13833 36.4464Z" fill="#CCCCCC"/>
<path d="M64.06 5.61549C64.4458 5.61549 64.7586 5.31812 64.7586 4.9513C64.7586 4.58448 64.4458 4.28711 64.06 4.28711C63.6741 4.28711 63.3613 4.58448 63.3613 4.9513C63.3613 5.31812 63.6741 5.61549 64.06 5.61549Z" fill="#CCCCCC"/>
<path d="M88.8384 33.5958C89.4649 33.5958 89.9727 33.113 89.9727 32.5174C89.9727 31.9218 89.4649 31.439 88.8384 31.439C88.2119 31.439 87.7041 31.9218 87.7041 32.5174C87.7041 33.113 88.2119 33.5958 88.8384 33.5958Z" fill="#CCCCCC"/>
<path d="M79.9686 15.7565C80.2374 15.7565 80.4553 15.5494 80.4553 15.2938C80.4553 15.0383 80.2374 14.8312 79.9686 14.8312C79.6998 14.8312 79.4819 15.0383 79.4819 15.2938C79.4819 15.5494 79.6998 15.7565 79.9686 15.7565Z" fill="#CCCCCC"/>
<path d="M20.8779 10.0716C21.2972 10.0716 21.6371 9.74848 21.6371 9.34984C21.6371 8.95121 21.2972 8.62805 20.8779 8.62805C20.4586 8.62805 20.1187 8.95121 20.1187 9.34984C20.1187 9.74848 20.4586 10.0716 20.8779 10.0716Z" fill="#CCCCCC"/>
<path d="M78.2652 30.7935C78.534 30.7935 78.7519 30.5864 78.7519 30.3308C78.7519 30.0753 78.534 29.8682 78.2652 29.8682C77.9965 29.8682 77.7786 30.0753 77.7786 30.3308C77.7786 30.5864 77.9965 30.7935 78.2652 30.7935Z" fill="#CCCCCC"/>
<path d="M3.60524 50.1011C3.93977 50.1011 4.21096 49.8432 4.21096 49.5252C4.21096 49.2072 3.93977 48.9493 3.60524 48.9493C3.27071 48.9493 2.99951 49.2072 2.99951 49.5252C2.99951 49.8432 3.27071 50.1011 3.60524 50.1011Z" fill="#CCCCCC"/>
<path d="M15.84 58.1639C16.2023 58.1639 16.496 57.8847 16.496 57.5403C16.496 57.1959 16.2023 56.9167 15.84 56.9167C15.4778 56.9167 15.1841 57.1959 15.1841 57.5403C15.1841 57.8847 15.4778 58.1639 15.84 58.1639Z" fill="#CCCCCC"/>
<path opacity="0.1" d="M42.8803 15.8029C44.1295 15.8029 45.1422 14.8402 45.1422 13.6525C45.1422 12.4649 44.1295 11.5021 42.8803 11.5021C41.6311 11.5021 40.6184 12.4649 40.6184 13.6525C40.6184 14.8402 41.6311 15.8029 42.8803 15.8029Z" fill="black"/>
<path opacity="0.1" d="M25.5046 31.54C26.7538 31.54 27.7665 30.5772 27.7665 29.3896C27.7665 28.202 26.7538 27.2392 25.5046 27.2392C24.2554 27.2392 23.2427 28.202 23.2427 29.3896C23.2427 30.5772 24.2554 31.54 25.5046 31.54Z" fill="black"/>
<path opacity="0.1" d="M50.4885 53.1418C51.7377 53.1418 52.7504 52.179 52.7504 50.9913C52.7504 49.8037 51.7377 48.8409 50.4885 48.8409C49.2393 48.8409 48.2266 49.8037 48.2266 50.9913C48.2266 52.179 49.2393 53.1418 50.4885 53.1418Z" fill="black"/>
<path opacity="0.1" d="M42.8803 34.8633C44.1295 34.8633 45.1422 33.9005 45.1422 32.7129C45.1422 31.5253 44.1295 30.5625 42.8803 30.5625C41.6311 30.5625 40.6184 31.5253 40.6184 32.7129C40.6184 33.9005 41.6311 34.8633 42.8803 34.8633Z" fill="black"/>
<path opacity="0.1" d="M26.6357 46.6905C27.8849 46.6905 28.8976 45.7278 28.8976 44.5401C28.8976 43.3525 27.8849 42.3897 26.6357 42.3897C25.3865 42.3897 24.3738 43.3525 24.3738 44.5401C24.3738 45.7278 25.3865 46.6905 26.6357 46.6905Z" fill="black"/>
<path opacity="0.1" d="M55.0124 23.3294C56.2616 23.3294 57.2743 22.3666 57.2743 21.179C57.2743 19.9913 56.2616 19.0286 55.0124 19.0286C53.7632 19.0286 52.7505 19.9913 52.7505 21.179C52.7505 22.3666 53.7632 23.3294 55.0124 23.3294Z" fill="black"/>
<path opacity="0.1" d="M62.5178 37.8935C63.767 37.8935 64.7797 36.9307 64.7797 35.7431C64.7797 34.5554 63.767 33.5927 62.5178 33.5927C61.2686 33.5927 60.2559 34.5554 60.2559 35.7431C60.2559 36.9307 61.2686 37.8935 62.5178 37.8935Z" fill="black"/>
<path d="M42.8803 26.164C44.527 26.164 45.8619 24.8949 45.8619 23.3294C45.8619 21.7639 44.527 20.4948 42.8803 20.4948C41.2336 20.4948 39.8987 21.7639 39.8987 23.3294C39.8987 24.8949 41.2336 26.164 42.8803 26.164Z" fill="white"/>
<path d="M42.8802 19.2241C41.7622 19.2241 40.69 19.6463 39.8994 20.3978C39.1089 21.1494 38.6648 22.1687 38.6648 23.2316C38.6648 25.4449 42.8802 32.7129 42.8802 32.7129C42.8802 32.7129 47.0956 25.4449 47.0956 23.2316C47.0956 22.1687 46.6515 21.1494 45.8609 20.3978C45.0704 19.6463 43.9982 19.2241 42.8802 19.2241ZM42.8802 25.1865C42.4938 25.1865 42.1161 25.0776 41.7949 24.8735C41.4736 24.6695 41.2233 24.3794 41.0754 24.0401C40.9275 23.7007 40.8889 23.3273 40.9642 22.967C41.0396 22.6068 41.2257 22.2759 41.4989 22.0161C41.7721 21.7564 42.1201 21.5795 42.4991 21.5079C42.878 21.4362 43.2708 21.473 43.6277 21.6136C43.9847 21.7541 44.2898 21.9922 44.5044 22.2976C44.7191 22.603 44.8337 22.962 44.8337 23.3294C44.8337 23.5732 44.7831 23.8148 44.685 24.0401C44.5868 24.2654 44.4429 24.4701 44.2615 24.6426C44.0801 24.815 43.8648 24.9518 43.6277 25.0452C43.3907 25.1385 43.1367 25.1865 42.8802 25.1865Z" fill="#CCCCCC"/>
<path d="M26.6354 38.2844C28.2821 38.2844 29.617 37.0153 29.617 35.4498C29.617 33.8843 28.2821 32.6152 26.6354 32.6152C24.9887 32.6152 23.6538 33.8843 23.6538 35.4498C23.6538 37.0153 24.9887 38.2844 26.6354 38.2844Z" fill="white"/>
<path d="M26.6356 31.3445C25.5176 31.3445 24.4454 31.7667 23.6548 32.5183C22.8643 33.2698 22.4202 34.2892 22.4202 35.3521C22.4202 37.5654 26.6356 44.8334 26.6356 44.8334C26.6356 44.8334 30.8509 37.5654 30.8509 35.3521C30.8509 34.8258 30.7419 34.3046 30.5301 33.8184C30.3182 33.3322 30.0077 32.8904 29.6163 32.5183C29.2249 32.1461 28.7601 31.8509 28.2487 31.6495C27.7373 31.4481 27.1891 31.3445 26.6356 31.3445ZM26.6356 37.307C26.2492 37.307 25.8715 37.198 25.5503 36.994C25.229 36.7899 24.9786 36.4999 24.8308 36.1605C24.6829 35.8211 24.6442 35.4477 24.7196 35.0875C24.795 34.7272 24.981 34.3963 25.2542 34.1366C25.5274 33.8768 25.8755 33.7 26.2544 33.6283C26.6334 33.5567 27.0262 33.5934 27.3831 33.734C27.7401 33.8746 28.0452 34.1126 28.2598 34.418C28.4745 34.7234 28.589 35.0825 28.589 35.4498C28.589 35.6937 28.5385 35.9352 28.4403 36.1605C28.3422 36.3858 28.1983 36.5906 28.0169 36.763C27.8355 36.9355 27.6201 37.0723 27.3831 37.1656C27.1461 37.2589 26.8921 37.307 26.6356 37.307Z" fill="#CCCCCC"/>
<path d="M62.518 29.4873C64.1647 29.4873 65.4996 28.2182 65.4996 26.6527C65.4996 25.0872 64.1647 23.8181 62.518 23.8181C60.8713 23.8181 59.5364 25.0872 59.5364 26.6527C59.5364 28.2182 60.8713 29.4873 62.518 29.4873Z" fill="white"/>
<path d="M62.5176 22.5474C61.9641 22.5474 61.4159 22.651 60.9045 22.8524C60.393 23.0538 59.9283 23.349 59.5369 23.7212C59.1455 24.0933 58.835 24.5351 58.6231 25.0213C58.4113 25.5075 58.3022 26.0287 58.3022 26.5549C58.3022 28.7683 62.5176 36.0363 62.5176 36.0363C62.5176 36.0363 66.733 28.7683 66.733 26.5549C66.733 26.0287 66.624 25.5075 66.4122 25.0213C66.2003 24.5351 65.8898 24.0933 65.4984 23.7212C65.1069 23.349 64.6422 23.0538 64.1308 22.8524C63.6194 22.651 63.0712 22.5474 62.5176 22.5474ZM62.5176 28.5098C62.1313 28.5098 61.7536 28.4009 61.4324 28.1969C61.1111 27.9928 60.8607 27.7027 60.7129 27.3634C60.565 27.024 60.5263 26.6506 60.6017 26.2904C60.6771 25.9301 60.8631 25.5992 61.1363 25.3395C61.4095 25.0797 61.7576 24.9028 62.1366 24.8312C62.5155 24.7595 62.9083 24.7963 63.2652 24.9369C63.6222 25.0774 63.9273 25.3155 64.1419 25.6209C64.3566 25.9263 64.4711 26.2854 64.4711 26.6527C64.4711 26.8966 64.4206 27.1381 64.3224 27.3634C64.2243 27.5887 64.0804 27.7934 63.899 27.9659C63.7176 28.1384 63.5022 28.2752 63.2652 28.3685C63.0282 28.4618 62.7742 28.5099 62.5176 28.5098Z" fill="#CCCCCC"/>
<path d="M42.8803 7.10358C44.527 7.10358 45.8619 5.83447 45.8619 4.26895C45.8619 2.70343 44.527 1.43433 42.8803 1.43433C41.2336 1.43433 39.8987 2.70343 39.8987 4.26895C39.8987 5.83447 41.2336 7.10358 42.8803 7.10358Z" fill="white"/>
<path d="M42.8802 0.163635C41.7622 0.163638 40.69 0.585861 39.8994 1.33742C39.1089 2.08899 38.6648 3.10833 38.6648 4.1712C38.6648 6.38452 42.8802 13.6525 42.8802 13.6525C42.8802 13.6525 47.0956 6.38452 47.0956 4.1712C47.0956 3.10833 46.6515 2.08899 45.8609 1.33742C45.0704 0.585858 43.9982 0.163635 42.8802 0.163635ZM42.8802 6.12612C42.4938 6.12612 42.1161 6.0172 41.7949 5.81313C41.4736 5.60906 41.2233 5.31901 41.0754 4.97965C40.9275 4.6403 40.8889 4.26688 40.9642 3.90663C41.0396 3.54637 41.2257 3.21546 41.4989 2.95573C41.7721 2.696 42.1201 2.51912 42.4991 2.44746C42.878 2.3758 43.2708 2.41258 43.6277 2.55315C43.9847 2.69371 44.2898 2.93175 44.5044 3.23716C44.7191 3.54257 44.8337 3.90163 44.8337 4.26895C44.8337 4.51284 44.7831 4.75434 44.685 4.97966C44.5868 5.20498 44.4429 5.40972 44.2615 5.58217C44.0801 5.75462 43.8648 5.89142 43.6277 5.98475C43.3907 6.07808 43.1367 6.12612 42.8802 6.12612Z" fill="#CCCCCC"/>
<path d="M50.4885 44.7356C52.1352 44.7356 53.4701 43.4665 53.4701 41.901C53.4701 40.3355 52.1352 39.0664 50.4885 39.0664C48.8418 39.0664 47.5068 40.3355 47.5068 41.901C47.5068 43.4665 48.8418 44.7356 50.4885 44.7356Z" fill="white"/>
<path d="M50.4886 37.7957C49.3706 37.7957 48.2984 38.2179 47.5079 38.9695C46.7173 39.7211 46.2732 40.7404 46.2732 41.8033C46.2732 44.0166 50.4886 51.2846 50.4886 51.2846C50.4886 51.2846 54.704 44.0166 54.704 41.8033C54.704 41.277 54.595 40.7559 54.3831 40.2696C54.1713 39.7834 53.8608 39.3416 53.4693 38.9695C53.0779 38.5974 52.6132 38.3022 52.1018 38.1008C51.5903 37.8994 51.0422 37.7957 50.4886 37.7957ZM50.4886 43.7582C50.1022 43.7582 49.7245 43.6493 49.4033 43.4452C49.082 43.2411 48.8317 42.9511 48.6838 42.6117C48.536 42.2724 48.4973 41.899 48.5726 41.5387C48.648 41.1785 48.8341 40.8475 49.1073 40.5878C49.3805 40.3281 49.7286 40.1512 50.1075 40.0795C50.4864 40.0079 50.8792 40.0447 51.2362 40.1852C51.5931 40.3258 51.8982 40.5638 52.1129 40.8692C52.3275 41.1746 52.4421 41.5337 52.4421 41.901C52.4421 42.1449 52.3916 42.3864 52.2934 42.6117C52.1952 42.8371 52.0513 43.0418 51.8699 43.2142C51.6885 43.3867 51.4732 43.5235 51.2362 43.6168C50.9992 43.7102 50.7451 43.7582 50.4886 43.7582Z" fill="#3F3D56"/>
<path d="M25.5046 22.9384C27.1513 22.9384 28.4862 21.6693 28.4862 20.1038C28.4862 18.5383 27.1513 17.2692 25.5046 17.2692C23.8579 17.2692 22.5229 18.5383 22.5229 20.1038C22.5229 21.6693 23.8579 22.9384 25.5046 22.9384Z" fill="white"/>
<path d="M25.5047 15.9984C24.3867 15.9984 23.3145 16.4206 22.524 17.1722C21.7334 17.9238 21.2893 18.9431 21.2893 20.006C21.2893 22.2193 25.5047 29.4873 25.5047 29.4873C25.5047 29.4873 29.7201 22.2193 29.7201 20.006C29.7201 18.9431 29.276 17.9238 28.4854 17.1722C27.6949 16.4206 26.6227 15.9984 25.5047 15.9984ZM25.5047 21.9609C25.1183 21.9609 24.7407 21.852 24.4194 21.6479C24.0982 21.4438 23.8478 21.1538 23.6999 20.8144C23.5521 20.4751 23.5134 20.1017 23.5888 19.7414C23.6641 19.3812 23.8502 19.0502 24.1234 18.7905C24.3966 18.5308 24.7447 18.3539 25.1236 18.2822C25.5025 18.2106 25.8953 18.2474 26.2523 18.3879C26.6092 18.5285 26.9143 18.7665 27.129 19.0719C27.3436 19.3773 27.4582 19.7364 27.4582 20.1037C27.4582 20.3476 27.4077 20.5891 27.3095 20.8144C27.2113 21.0398 27.0674 21.2445 26.886 21.4169C26.7046 21.5894 26.4893 21.7262 26.2523 21.8195C26.0153 21.9129 25.7612 21.9609 25.5047 21.9609Z" fill="#3F3D56"/>
<path d="M55.0124 15.0209C56.6591 15.0209 57.994 13.7518 57.994 12.1863C57.994 10.6208 56.6591 9.35168 55.0124 9.35168C53.3657 9.35168 52.0308 10.6208 52.0308 12.1863C52.0308 13.7518 53.3657 15.0209 55.0124 15.0209Z" fill="white"/>
<path d="M55.0125 8.08099C53.8945 8.08099 52.8223 8.50322 52.0318 9.25478C51.2412 10.0063 50.7971 11.0257 50.7971 12.0886C50.7971 14.3019 55.0125 21.5699 55.0125 21.5699C55.0125 21.5699 59.2279 14.3019 59.2279 12.0886C59.2279 11.0257 58.7838 10.0063 57.9932 9.25478C57.2027 8.50322 56.1305 8.08099 55.0125 8.08099ZM55.0125 14.0435C54.6261 14.0435 54.2485 13.9346 53.9272 13.7305C53.606 13.5264 53.3556 13.2364 53.2077 12.897C53.0599 12.5577 53.0212 12.1842 53.0966 11.824C53.1719 11.4637 53.358 11.1328 53.6312 10.8731C53.9044 10.6134 54.2525 10.4365 54.6314 10.3648C55.0103 10.2932 55.4031 10.3299 55.7601 10.4705C56.117 10.6111 56.4221 10.8491 56.6368 11.1545C56.8514 11.4599 56.966 11.819 56.966 12.1863C56.966 12.6789 56.7602 13.1512 56.3938 13.4995C56.0275 13.8478 55.5306 14.0435 55.0125 14.0435V14.0435Z" fill="#3F3D56"/>
</g>
<defs>
<clipPath id="clip0">
<rect width="90" height="59.4495" fill="white"/>
</clipPath>
</defs>
</svg>
