<svg width="50" height="44" viewBox="0 0 50 44" fill="none" xmlns="http://www.w3.org/2000/svg">
<path d="M50 5.59054C48.1406 6.45385 46.1594 7.02608 44.0938 7.30392C46.2188 5.961 47.8406 3.85069 48.6031 1.30708C46.6219 2.55738 44.4344 3.44054 42.1031 3.93338C40.2219 1.81315 37.5406 0.5 34.6156 0.5C28.9406 0.5 24.3719 5.37554 24.3719 11.3525C24.3719 12.2125 24.4406 13.0395 24.6094 13.8267C16.0875 13.3868 8.54688 9.06362 3.48125 2.478C2.59687 4.10208 2.07812 5.961 2.07812 7.96215C2.07812 11.7197 3.90625 15.0505 6.63125 16.9789C4.98438 16.9458 3.36875 16.4398 2 15.6426C2 15.6757 2 15.7187 2 15.7617C2 21.0342 5.55312 25.4135 10.2125 26.4224C9.37812 26.6638 8.46875 26.7796 7.525 26.7796C6.86875 26.7796 6.20625 26.7399 5.58437 26.5944C6.9125 30.8911 10.6813 34.0499 15.1625 34.1525C11.675 37.0401 7.24688 38.7799 2.45312 38.7799C1.6125 38.7799 0.80625 38.7402 0 38.6311C4.54062 41.7304 9.92188 43.5 15.725 43.5C34.5875 43.5 44.9 26.9615 44.9 12.626C44.9 12.1464 44.8844 11.6833 44.8625 11.2235C46.8969 9.69538 48.6063 7.78685 50 5.59054Z" fill="#C8CDCF"/>
</svg>
